<svg width="19" height="19" viewBox="0 0 19 19" fill="none" xmlns="http://www.w3.org/2000/svg">
<g clip-path="url(#clip0_1_52)">
<path d="M15.6727 8.45478C15.6514 8.36463 15.6082 8.28113 15.5469 8.2117C15.4855 8.14228 15.408 8.08907 15.3212 8.05682L11.2705 6.53736L12.3012 1.38135C12.3246 1.26155 12.3083 1.13741 12.2549 1.02766C12.2015 0.917913 12.1139 0.828512 12.0052 0.772947C11.8965 0.717383 11.7727 0.69867 11.6525 0.719633C11.5323 0.740596 11.4221 0.800098 11.3387 0.889159L3.46366 9.32666C3.3997 9.39405 3.35344 9.47624 3.32899 9.56588C3.30455 9.65552 3.30269 9.74982 3.32358 9.84036C3.34447 9.93089 3.38746 10.0148 3.44872 10.0847C3.50997 10.1546 3.58758 10.2082 3.6746 10.2407L7.72671 11.7602L6.69874 16.9106C6.6754 17.0304 6.69166 17.1545 6.74506 17.2642C6.79846 17.374 6.88611 17.4634 6.99478 17.519C7.10345 17.5745 7.22724 17.5932 7.34747 17.5723C7.46771 17.5513 7.57787 17.4918 7.66132 17.4028L15.5363 8.96525C15.5991 8.89784 15.6444 8.81604 15.6682 8.72703C15.692 8.63802 15.6935 8.54454 15.6727 8.45478ZM8.19007 15.1928L8.92624 11.5099C8.95259 11.3792 8.93171 11.2435 8.86733 11.1269C8.80295 11.0102 8.69924 10.9202 8.57468 10.8728L4.85937 9.47713L10.8092 3.1026L10.0737 6.78557C10.0474 6.91618 10.0683 7.05191 10.1327 7.16858C10.197 7.28524 10.3007 7.37526 10.4253 7.4226L14.1378 8.81478L8.19007 15.1928Z" fill="black"/>
</g>
<defs>
<clipPath id="clip0_1_52">
<rect width="18" height="18" fill="white" transform="translate(0.5 0.145844)"/>
</clipPath>
</defs>
</svg>
