<svg width="13" height="14" viewBox="0 0 13 14" fill="none" xmlns="http://www.w3.org/2000/svg">
<path d="M7.88663 3.60115H1.13895M7.88663 3.60115C7.88663 2.48272 8.79251 1.57684 9.91094 1.57684C11.0294 1.57684 11.9352 2.48272 11.9352 3.60115C11.9352 4.71958 11.0294 5.62545 9.91094 5.62545C8.79251 5.62545 7.88663 4.71958 7.88663 3.60115ZM11.9352 10.3488H6.53709M6.53709 10.3488C6.53709 11.4673 5.63122 12.3731 4.51279 12.3731C3.39436 12.3731 2.48848 11.4673 2.48848 10.3488M6.53709 10.3488C6.53709 9.23041 5.63122 8.32453 4.51279 8.32453C3.39436 8.32453 2.48848 9.23041 2.48848 10.3488M2.48848 10.3488H1.13895" stroke="black" stroke-width="1.34954" stroke-linecap="round" stroke-linejoin="round"/>
</svg>
