<svg width="123" height="124" viewBox="0 0 123 124" fill="none" xmlns="http://www.w3.org/2000/svg">
<g filter="url(#filter0_dd_19_56)">
<path d="M55.5 42C55.5 38.6863 58.1863 36 61.5 36C64.8137 36 67.5 38.6863 67.5 42V50C67.5 51.1046 68.3954 52 69.5 52H77.25C80.4256 52 83 54.5744 83 57.75C83 60.9256 80.4256 63.5 77.25 63.5H69.5C68.3954 63.5 67.5 64.3954 67.5 65.5V73.5C67.5 76.8137 64.8137 79.5 61.5 79.5C58.1863 79.5 55.5 76.8137 55.5 73.5V65.5C55.5 64.3954 54.6046 63.5 53.5 63.5H45.75C42.5744 63.5 40 60.9256 40 57.75C40 54.5744 42.5744 52 45.75 52H53.5C54.6046 52 55.5 51.1046 55.5 50V42Z" fill="url(#paint0_linear_19_56)"/>
<path d="M55.5 42C55.5 38.6863 58.1863 36 61.5 36C64.8137 36 67.5 38.6863 67.5 42V50C67.5 51.1046 68.3954 52 69.5 52H77.25C80.4256 52 83 54.5744 83 57.75C83 60.9256 80.4256 63.5 77.25 63.5H69.5C68.3954 63.5 67.5 64.3954 67.5 65.5V73.5C67.5 76.8137 64.8137 79.5 61.5 79.5C58.1863 79.5 55.5 76.8137 55.5 73.5V65.5C55.5 64.3954 54.6046 63.5 53.5 63.5H45.75C42.5744 63.5 40 60.9256 40 57.75C40 54.5744 42.5744 52 45.75 52H53.5C54.6046 52 55.5 51.1046 55.5 50V42Z" fill="url(#paint1_linear_19_56)"/>
</g>
<defs>
<filter id="filter0_dd_19_56" x="0" y="0" width="123" height="123.5" filterUnits="userSpaceOnUse" color-interpolation-filters="sRGB">
<feFlood flood-opacity="0" result="BackgroundImageFix"/>
<feColorMatrix in="SourceAlpha" type="matrix" values="0 0 0 0 0 0 0 0 0 0 0 0 0 0 0 0 0 0 127 0" result="hardAlpha"/>
<feOffset dy="4"/>
<feGaussianBlur stdDeviation="20"/>
<feComposite in2="hardAlpha" operator="out"/>
<feColorMatrix type="matrix" values="0 0 0 0 0 0 0 0 0 0 0 0 0 0 0 0 0 0 0.25 0"/>
<feBlend mode="normal" in2="BackgroundImageFix" result="effect1_dropShadow_19_56"/>
<feColorMatrix in="SourceAlpha" type="matrix" values="0 0 0 0 0 0 0 0 0 0 0 0 0 0 0 0 0 0 127 0" result="hardAlpha"/>
<feOffset dy="4"/>
<feGaussianBlur stdDeviation="10"/>
<feComposite in2="hardAlpha" operator="out"/>
<feColorMatrix type="matrix" values="0 0 0 0 0.898039 0 0 0 0 0.894118 0 0 0 0 0.960784 0 0 0 1 0"/>
<feBlend mode="normal" in2="effect1_dropShadow_19_56" result="effect2_dropShadow_19_56"/>
<feBlend mode="normal" in="SourceGraphic" in2="effect2_dropShadow_19_56" result="shape"/>
</filter>
<linearGradient id="paint0_linear_19_56" x1="61.5" y1="36" x2="61.5" y2="79.5" gradientUnits="userSpaceOnUse">
<stop stop-color="#FFA48D"/>
<stop offset="1" stop-color="#5969FC"/>
</linearGradient>
<linearGradient id="paint1_linear_19_56" x1="61.5" y1="36" x2="61.5" y2="79.5" gradientUnits="userSpaceOnUse">
<stop stop-color="#FFAA92"/>
<stop offset="1" stop-color="#596AFE"/>
</linearGradient>
</defs>
</svg>
