<svg width="1242" height="887" viewBox="0 0 1242 887" fill="none" xmlns="http://www.w3.org/2000/svg">
<g clip-path="url(#clip0_1_3)">
<rect x="0.0515022" y="0.279633" width="1241.9" height="885.926" rx="35.687" fill="url(#paint0_linear_1_3)"/>
<g opacity="0.33" filter="url(#filter0_f_1_3)">
<ellipse cx="628.05" cy="852.349" rx="413.969" ry="311.369" fill="#FFBC78"/>
</g>
<g opacity="0.3">
<mask id="mask0_1_3" style="mask-type:alpha" maskUnits="userSpaceOnUse" x="289" y="310" width="664" height="301">
<ellipse cx="621.358" cy="460.685" rx="331.443" ry="149.885" fill="#D9D9D9"/>
</mask>
<g mask="url(#mask0_1_3)">
<path d="M206.364 272.663V245.264H233.763L261.162 245.264H288.561L315.96 245.264L343.359 245.264H370.758L398.157 245.264L425.555 245.264H452.954L480.353 245.264L507.752 245.264H535.151L562.55 245.264L589.949 245.264H617.348L644.747 245.264L672.146 245.264H699.545L726.943 245.264L754.342 245.264H781.741L809.14 245.264L836.539 245.264H863.938L891.337 245.264L918.736 245.264H946.135L973.534 245.264H1000.93V272.663V300.062V327.461V354.86V382.259V409.658V437.057V464.456V491.855V519.254V546.653V574.051V601.45V628.849V656.248V683.647V711.046H973.534H946.135H918.736H891.337H863.938H836.539H809.14H781.741H754.342H726.943H699.545H672.146H644.747H617.348H589.949H562.55H535.151H507.752H480.353H452.954H425.555H398.157H370.758H343.359H315.96H288.561H261.162H233.763H206.364V683.647V656.248V628.849V601.45V574.051V546.653V519.254V491.855V464.456V437.057V409.658V382.259V354.86V327.461V300.062V272.663Z" fill="#D9D9D9"/>
<path d="M206.364 225.434V730.877M617.348 225.434V730.877M233.763 225.434V730.877M644.747 225.434V730.877M261.162 225.434V730.877M672.146 225.434V730.877M288.561 225.434V730.877M699.545 225.434V730.877M315.96 225.434V730.877M726.943 225.434V730.877M343.359 225.434V730.877M754.343 225.434V730.877M370.758 225.434V730.877M781.741 225.434V730.877M398.157 225.434V730.877M809.14 225.434V730.877M425.555 225.434V730.877M836.539 225.434V730.877M452.955 225.434V730.877M863.938 225.434V730.877M480.353 225.434V730.877M891.337 225.434V730.877M507.752 225.434V730.877M918.736 225.434V730.877M535.151 225.434V730.877M946.135 225.434V730.877M562.55 225.434V730.877M973.534 225.434V730.877M589.949 225.434V730.877M1000.93 225.434V730.877M184.905 464.456L1022.39 464.456M184.905 437.057L1022.39 437.057M184.905 409.658L1022.39 409.658M184.905 382.259L1022.39 382.259M184.905 354.86L1022.39 354.86M184.905 327.461L1022.39 327.461M184.905 711.046H1022.39M184.905 300.062L1022.39 300.062M184.905 683.647L1022.39 683.647M184.905 272.663L1022.39 272.663M184.905 656.248L1022.39 656.248M184.905 245.264L1022.39 245.264M184.905 628.849L1022.39 628.849M184.905 601.45L1022.39 601.45M184.905 574.051L1022.39 574.051M184.905 546.653L1022.39 546.653M184.905 519.254L1022.39 519.254M184.905 491.855L1022.39 491.855" stroke="#FF8585" stroke-width="0.383202"/>
</g>
</g>
<g filter="url(#filter1_f_1_3)">
<path d="M1162.45 939.807C1217.31 765.287 1062.79 484.034 978.676 365.222C1117.08 384.339 1428.73 490.43 1568.03 761.857C1742.15 1101.14 1093.87 1157.96 1162.45 939.807Z" fill="#FF614D" fill-opacity="0.4"/>
</g>
<g filter="url(#filter2_f_1_3)">
<path d="M80.2728 939.807C25.4096 765.287 179.927 484.034 264.043 365.222C125.635 384.339 -186.006 490.43 -325.307 761.857C-499.434 1101.14 148.852 1157.96 80.2728 939.807Z" fill="#FF614D" fill-opacity="0.4"/>
</g>
<circle cx="620.913" cy="923.016" r="482.666" fill="url(#paint1_linear_1_3)" fill-opacity="0.16"/>
<circle cx="620.913" cy="923.016" r="481.328" stroke="white" stroke-opacity="0.1" stroke-width="2.67652"/>
<circle cx="620.912" cy="923.016" r="369.36" fill="url(#paint2_linear_1_3)" fill-opacity="0.16"/>
<circle cx="620.912" cy="923.016" r="368.022" stroke="white" stroke-opacity="0.1" stroke-width="2.67652"/>
<path d="M888.564 923.016C888.564 1070.84 768.732 1190.67 620.912 1190.67C473.092 1190.67 353.26 1070.84 353.26 923.016C353.26 775.196 473.092 655.364 620.912 655.364C768.732 655.364 888.564 775.196 888.564 923.016Z" fill="url(#paint3_linear_1_3)" fill-opacity="0.16"/>
<path d="M620.912 656.701C767.993 656.702 887.225 775.935 887.225 923.016C887.225 1070.1 767.993 1189.33 620.912 1189.33C473.831 1189.33 354.598 1070.1 354.598 923.016C354.598 775.935 473.831 656.701 620.912 656.701Z" stroke="white" stroke-opacity="0.1" stroke-width="2.67652"/>
</g>
<defs>
<filter id="filter0_f_1_3" x="3.52802" y="330.427" width="1249.04" height="1043.84" filterUnits="userSpaceOnUse" color-interpolation-filters="sRGB">
<feFlood flood-opacity="0" result="BackgroundImageFix"/>
<feBlend mode="normal" in="SourceGraphic" in2="BackgroundImageFix" result="shape"/>
<feGaussianBlur stdDeviation="105.277" result="effect1_foregroundBlur_1_3"/>
</filter>
<filter id="filter1_f_1_3" x="832.359" y="218.905" width="911.802" height="996.559" filterUnits="userSpaceOnUse" color-interpolation-filters="sRGB">
<feFlood flood-opacity="0" result="BackgroundImageFix"/>
<feBlend mode="normal" in="SourceGraphic" in2="BackgroundImageFix" result="shape"/>
<feGaussianBlur stdDeviation="73.1583" result="effect1_foregroundBlur_1_3"/>
</filter>
<filter id="filter2_f_1_3" x="-501.443" y="218.905" width="911.802" height="996.559" filterUnits="userSpaceOnUse" color-interpolation-filters="sRGB">
<feFlood flood-opacity="0" result="BackgroundImageFix"/>
<feBlend mode="normal" in="SourceGraphic" in2="BackgroundImageFix" result="shape"/>
<feGaussianBlur stdDeviation="73.1583" result="effect1_foregroundBlur_1_3"/>
</filter>
<linearGradient id="paint0_linear_1_3" x1="621" y1="0.279633" x2="621" y2="886.206" gradientUnits="userSpaceOnUse">
<stop stop-color="#FFEDE9" stop-opacity="0.8"/>
<stop offset="1" stop-color="#FCE1DF"/>
</linearGradient>
<linearGradient id="paint1_linear_1_3" x1="620.913" y1="440.35" x2="620.913" y2="1405.68" gradientUnits="userSpaceOnUse">
<stop stop-color="white"/>
<stop offset="1" stop-color="white" stop-opacity="0"/>
</linearGradient>
<linearGradient id="paint2_linear_1_3" x1="620.912" y1="553.656" x2="620.912" y2="1292.38" gradientUnits="userSpaceOnUse">
<stop stop-color="white"/>
<stop offset="1" stop-color="white" stop-opacity="0"/>
</linearGradient>
<linearGradient id="paint3_linear_1_3" x1="620.912" y1="655.364" x2="620.912" y2="1190.67" gradientUnits="userSpaceOnUse">
<stop stop-color="white"/>
<stop offset="1" stop-color="white" stop-opacity="0"/>
</linearGradient>
<clipPath id="clip0_1_3">
<rect x="0.0515022" y="0.279633" width="1241.9" height="885.926" rx="35.687" fill="white"/>
</clipPath>
</defs>
</svg>
