<svg width="1374" height="103" viewBox="0 0 1374 103" fill="none" xmlns="http://www.w3.org/2000/svg">
<path d="M140.869 49.2427C140.443 49.6707 140.118 50.1872 139.915 50.7554C139.712 51.3237 139.637 51.9297 139.695 52.5303L139.675 52.5101C139.734 53.2172 139.639 53.9286 139.395 54.595C139.151 55.2613 138.765 55.8664 138.264 56.3681C137.762 56.8698 137.157 57.256 136.49 57.4996C135.824 57.7433 135.113 57.8387 134.406 57.779L134.426 57.7992C133.58 57.7205 132.731 57.9044 131.994 58.3262C131.256 58.7479 130.667 59.3867 130.306 60.1555C129.945 60.9244 129.83 61.7858 129.977 62.6225C130.124 63.459 130.525 64.2301 131.125 64.8303C131.726 65.4306 132.498 65.831 133.334 65.9768C134.171 66.1227 135.032 66.0069 135.801 65.6454C136.569 65.2837 137.208 64.694 137.629 63.9563C138.05 63.2186 138.233 62.3691 138.154 61.5235L138.175 61.5437C138.115 60.8368 138.21 60.1252 138.454 59.4588C138.698 58.7925 139.084 58.1874 139.586 57.6857C140.087 57.1841 140.693 56.7978 141.359 56.5542C142.025 56.3106 142.737 56.2151 143.444 56.2749L143.422 56.2547C144.113 56.3167 144.809 56.2035 145.444 55.9253C146.079 55.6472 146.634 55.2131 147.057 54.6635C147.48 54.1138 147.758 53.4661 147.864 52.7808C147.97 52.0953 147.901 51.3942 147.664 50.7423C147.427 50.0905 147.029 49.509 146.507 49.0519C145.986 48.5947 145.357 48.2766 144.68 48.1271C144.003 47.9775 143.298 48.0013 142.633 48.1963C141.967 48.3914 141.362 48.7513 140.872 49.2427H140.869Z" fill="url(#paint0_linear_0_47)" fill-opacity="0.92"/>
<path d="M132.589 55.1539L132.568 55.1337C133.169 55.1942 133.776 55.1205 134.345 54.9177C134.913 54.715 135.43 54.3885 135.857 53.9616C136.285 53.5348 136.612 53.0182 136.815 52.4495C137.018 51.8807 137.092 51.274 137.032 50.6731L137.053 50.6933C136.994 49.9862 137.089 49.2748 137.333 48.6084C137.576 47.9421 137.962 47.337 138.464 46.8353C138.966 46.3336 139.571 45.9474 140.237 45.7038C140.904 45.4601 141.615 45.3648 142.322 45.4244L142.301 45.4042C143.147 45.4837 143.996 45.3003 144.734 44.879C145.472 44.4578 146.061 43.8193 146.423 43.0506C146.784 42.2818 146.9 41.4203 146.754 40.5835C146.607 39.7467 146.207 38.9754 145.606 38.3747C145.005 37.774 144.234 37.3733 143.397 37.2271C142.56 37.0809 141.699 37.1964 140.93 37.5579C140.161 37.9193 139.523 38.5091 139.102 39.2468C138.68 39.9845 138.497 40.8342 138.576 41.6799L138.556 41.6586C138.616 42.3656 138.521 43.0772 138.277 43.7436C138.034 44.41 137.648 45.0153 137.146 45.517C136.644 46.0187 136.039 46.4049 135.373 46.6485C134.706 46.8921 133.994 46.9872 133.287 46.9274L133.308 46.9487C132.707 46.8882 132.1 46.962 131.531 47.1647C130.962 47.3673 130.445 47.6939 130.018 48.1208C129.591 48.5477 129.264 49.0642 129.061 49.633C128.858 50.2017 128.784 50.8084 128.844 51.4094L128.823 51.3892C128.883 52.0961 128.787 52.8075 128.544 53.4738C128.3 54.14 127.914 54.7451 127.412 55.2467C126.911 55.7484 126.305 56.1345 125.639 56.3783C124.973 56.622 124.262 56.7175 123.555 56.658L123.575 56.6782C122.729 56.5987 121.879 56.7821 121.142 57.2034C120.404 57.6247 119.814 58.2631 119.453 59.0319C119.091 59.8006 118.976 60.6621 119.122 61.4989C119.268 62.3357 119.669 63.1071 120.27 63.7077C120.87 64.3084 121.642 64.7092 122.478 64.8553C123.315 65.0014 124.177 64.8859 124.945 64.5245C125.714 64.1631 126.353 63.5733 126.774 62.8357C127.195 62.0979 127.379 61.2483 127.299 60.4025L127.32 60.4227C127.261 59.7157 127.356 59.0043 127.6 58.3379C127.843 57.6716 128.23 57.0665 128.731 56.5647C129.233 56.0631 129.838 55.6769 130.504 55.4333C131.171 55.1896 131.882 55.0942 132.589 55.1539Z" fill="url(#paint1_linear_0_47)" fill-opacity="0.92"/>
<path d="M125.065 52.8999C125.49 52.472 125.816 51.9554 126.019 51.3871C126.222 50.8188 126.296 50.2127 126.238 49.6122L126.259 49.6324C126.2 48.9252 126.295 48.2135 126.539 47.547C126.783 46.8805 127.169 46.2752 127.671 45.7735C128.173 45.2718 128.778 44.8857 129.445 44.6421C130.111 44.3986 130.823 44.3035 131.53 44.3636L131.509 44.3434C132.354 44.4226 133.204 44.2391 133.941 43.8179C134.678 43.3967 135.268 42.7583 135.629 41.9898C135.99 41.2213 136.106 40.3601 135.96 39.5236C135.814 38.6872 135.413 37.9161 134.812 37.3157C134.212 36.7152 133.441 36.3146 132.604 36.1684C131.768 36.0222 130.907 36.1377 130.138 36.4989C129.37 36.8601 128.731 37.4496 128.31 38.1869C127.889 38.9243 127.705 39.7736 127.785 40.6191L127.764 40.5989C127.824 41.3058 127.729 42.0173 127.485 42.6837C127.241 43.35 126.855 43.9551 126.354 44.4568C125.852 44.9585 125.247 45.3447 124.58 45.5883C123.914 45.832 123.203 45.9274 122.496 45.8677L122.516 45.8879C121.825 45.8259 121.13 45.9394 120.495 46.2176C119.859 46.4959 119.304 46.9301 118.882 47.4798C118.459 48.0295 118.182 48.6772 118.076 49.3625C117.97 50.048 118.038 50.7491 118.276 51.4008C118.513 52.0526 118.911 52.6339 119.432 53.091C119.954 53.5482 120.582 53.8662 121.26 54.0157C121.937 54.1651 122.641 54.1412 123.307 53.9462C123.972 53.7511 124.578 53.3913 125.067 52.8999H125.065Z" fill="url(#paint2_linear_0_47)" fill-opacity="0.92"/>
<path d="M159.835 41.705H163.168V57.9278H159.835V41.705Z" fill="url(#paint3_linear_0_47)" fill-opacity="0.92"/>
<path d="M165.054 52.3729C165.05 51.2071 165.391 50.0661 166.035 49.0945C166.68 48.1229 167.598 47.3643 168.674 46.915C169.749 46.4656 170.934 46.3456 172.078 46.5702C173.222 46.7948 174.274 47.3538 175.1 48.1765C175.926 48.9992 176.489 50.0485 176.718 51.1917C176.948 52.3348 176.832 53.5202 176.387 54.5978C175.942 55.6752 175.187 56.5965 174.218 57.2446C173.249 57.8928 172.11 58.2389 170.944 58.2389C170.17 58.2478 169.402 58.1022 168.685 57.8108C167.968 57.5194 167.316 57.088 166.768 56.542C166.22 55.9958 165.786 55.3458 165.491 54.63C165.197 53.9142 165.049 53.1469 165.054 52.3729ZM173.5 52.3729C173.486 51.8704 173.324 51.3831 173.035 50.972C172.745 50.5609 172.341 50.2442 171.873 50.0616C171.405 49.8788 170.893 49.8382 170.402 49.9448C169.91 50.0515 169.461 50.3004 169.111 50.6608C168.76 51.0212 168.524 51.4769 168.431 51.971C168.338 52.465 168.393 52.9755 168.588 53.4386C168.784 53.9017 169.112 54.2968 169.531 54.5746C169.95 54.8524 170.441 55.0006 170.944 55.0006C171.288 55.0098 171.631 54.9475 171.95 54.8178C172.269 54.688 172.557 54.4936 172.797 54.2468C173.038 53.9998 173.224 53.7058 173.345 53.3834C173.466 53.0609 173.518 52.7169 173.5 52.3729Z" fill="url(#paint4_linear_0_47)" fill-opacity="0.92"/>
<path d="M190.123 46.8176V57.3687C190.123 61.102 187.211 62.6801 184.256 62.6801C183.215 62.758 182.173 62.5478 181.244 62.0727C180.315 61.5974 179.535 60.8756 178.989 59.9862L181.834 58.3418C182.063 58.8054 182.429 59.1878 182.881 59.438C183.334 59.6881 183.853 59.7941 184.367 59.7415C184.696 59.7871 185.031 59.7581 185.347 59.6568C185.663 59.5554 185.953 59.3843 186.194 59.1561C186.435 58.9278 186.621 58.6483 186.74 58.338C186.858 58.0279 186.906 57.6951 186.878 57.3642V56.3484C186.488 56.826 185.991 57.2055 185.427 57.4563C184.864 57.7072 184.249 57.8225 183.633 57.793C182.167 57.7467 180.776 57.1318 179.755 56.0783C178.735 55.0249 178.164 53.6155 178.164 52.1487C178.164 50.6818 178.735 49.2725 179.755 48.2191C180.776 47.1655 182.167 46.5506 183.633 46.5044C184.249 46.4749 184.864 46.5902 185.427 46.841C185.991 47.0919 186.488 47.4714 186.878 47.949V46.8153L190.123 46.8176ZM186.879 52.1504C186.902 51.6132 186.763 51.0814 186.48 50.6238C186.198 50.1661 185.785 49.8034 185.295 49.5824C184.805 49.3613 184.26 49.292 183.73 49.3834C183.2 49.4748 182.71 49.7226 182.322 50.0951C181.934 50.4676 181.666 50.9475 181.554 51.4733C181.441 51.9991 181.488 52.5466 181.689 53.0453C181.89 53.544 182.236 53.9712 182.682 54.2718C183.128 54.5724 183.653 54.7327 184.191 54.732C184.541 54.7565 184.893 54.7073 185.223 54.5877C185.553 54.468 185.854 54.2804 186.107 54.0373C186.361 53.7941 186.56 53.5006 186.693 53.1755C186.826 52.8505 186.889 52.5014 186.879 52.1504Z" fill="url(#paint5_linear_0_47)" fill-opacity="0.92"/>
<path d="M192.011 52.3729C192.006 51.2071 192.348 50.0661 192.992 49.0945C193.636 48.1229 194.555 47.3643 195.63 46.915C196.706 46.4656 197.891 46.3456 199.035 46.5702C200.179 46.7948 201.231 47.3538 202.057 48.1765C202.883 48.9992 203.446 50.0485 203.675 51.1917C203.904 52.3348 203.789 53.5202 203.344 54.5978C202.899 55.6752 202.144 56.5965 201.175 57.2446C200.206 57.8928 199.066 58.2389 197.9 58.2389C197.127 58.2478 196.359 58.1022 195.642 57.8108C194.925 57.5194 194.273 57.088 193.725 56.542C193.176 55.9958 192.742 55.3458 192.448 54.63C192.154 53.9142 192.005 53.1469 192.011 52.3729ZM200.456 52.3729C200.442 51.8704 200.281 51.3831 199.991 50.972C199.702 50.5609 199.298 50.2442 198.83 50.0616C198.361 49.8788 197.849 49.8382 197.358 49.9448C196.867 50.0515 196.418 50.3004 196.067 50.6608C195.717 51.0212 195.48 51.4769 195.387 51.971C195.294 52.465 195.349 52.9755 195.545 53.4386C195.741 53.9017 196.068 54.2968 196.487 54.5746C196.906 54.8524 197.398 55.0006 197.9 55.0006C198.245 55.0098 198.587 54.9475 198.906 54.8178C199.225 54.688 199.514 54.4936 199.754 54.2468C199.994 53.9998 200.181 53.7058 200.301 53.3834C200.422 53.0609 200.475 52.7169 200.456 52.3729Z" fill="url(#paint6_linear_0_47)" fill-opacity="0.92"/>
<path d="M205.344 43.8385C205.344 43.4429 205.461 43.0561 205.681 42.7272C205.901 42.3983 206.213 42.1419 206.579 41.9905C206.944 41.8391 207.346 41.7995 207.734 41.8767C208.122 41.9539 208.479 42.1444 208.758 42.4241C209.038 42.7038 209.229 43.0602 209.306 43.4483C209.383 43.8363 209.343 44.2384 209.192 44.6039C209.041 44.9694 208.784 45.2818 208.455 45.5016C208.126 45.7214 207.74 45.8387 207.344 45.8387C206.815 45.8334 206.309 45.6211 205.935 45.247C205.562 44.873 205.349 44.3673 205.344 43.8385ZM205.68 46.8164H209.015V57.9287H205.676L205.68 46.8164Z" fill="url(#paint7_linear_0_47)" fill-opacity="0.92"/>
<path d="M223.41 52.3731C223.449 53.1076 223.342 53.8423 223.095 54.5352C222.849 55.2281 222.468 55.8654 221.974 56.4106C221.481 56.9557 220.884 57.3979 220.219 57.7118C219.554 58.0255 218.833 58.2048 218.099 58.2391C217.481 58.2728 216.863 58.1686 216.291 57.9341C215.718 57.6995 215.205 57.3406 214.789 56.8832V62.3731H211.455V46.817H214.789V47.8609C215.205 47.4038 215.719 47.0451 216.291 46.8108C216.864 46.5764 217.481 46.4724 218.099 46.5061C218.833 46.5403 219.554 46.7194 220.219 47.0333C220.885 47.3471 221.481 47.7894 221.975 48.3347C222.469 48.88 222.85 49.5175 223.096 50.2106C223.342 50.9036 223.449 51.6386 223.41 52.3731ZM220.076 52.3731C220.063 51.8531 219.897 51.3485 219.599 50.9223C219.3 50.4962 218.883 50.1675 218.399 49.9776C217.914 49.7876 217.385 49.7446 216.876 49.8541C216.368 49.9636 215.903 50.2206 215.539 50.593C215.176 50.9656 214.931 51.4368 214.834 51.9481C214.738 52.4592 214.794 52.9875 214.996 53.4669C215.198 53.9463 215.537 54.3553 215.971 54.643C216.404 54.9306 216.913 55.084 217.433 55.0839C217.79 55.0998 218.147 55.04 218.479 54.9084C218.812 54.777 219.112 54.5766 219.362 54.3207C219.612 54.0647 219.804 53.7589 219.927 53.4233C220.051 53.0877 220.101 52.7298 220.076 52.3731Z" fill="url(#paint8_linear_0_47)" fill-opacity="0.92"/>
<path d="M233.699 54.5935C233.699 57.1494 231.478 58.2382 229.078 58.2382C228.108 58.3259 227.135 58.121 226.283 57.6494C225.431 57.178 224.74 56.4619 224.3 55.5937L227.188 53.9493C227.305 54.3505 227.556 54.6997 227.899 54.9383C228.242 55.1769 228.657 55.2906 229.074 55.2603C229.873 55.2603 230.274 55.0156 230.274 54.5722C230.274 53.3487 224.806 53.9942 224.806 50.1497C224.806 47.7264 226.851 46.5051 229.162 46.5051C230.031 46.4776 230.891 46.6837 231.653 47.1018C232.415 47.52 233.052 48.1349 233.495 48.8825L230.651 50.4158C230.526 50.1247 230.318 49.8768 230.054 49.7029C229.789 49.529 229.479 49.437 229.162 49.4381C228.584 49.4381 228.228 49.6626 228.228 50.0599C228.233 51.3272 233.699 50.482 233.699 54.5935Z" fill="url(#paint9_linear_0_47)" fill-opacity="0.92"/>
<path d="M245.874 46.817V57.9293H242.54V56.8843C242.155 57.3454 241.667 57.7088 241.115 57.9445C240.562 58.1802 239.963 58.2816 239.363 58.2403C237.119 58.2403 235.21 56.6408 235.21 53.6382V46.817H238.544V53.1499C238.516 53.4146 238.546 53.6822 238.633 53.934C238.718 54.1858 238.858 54.4159 239.042 54.6082C239.227 54.8005 239.45 54.9503 239.698 55.0474C239.945 55.1445 240.211 55.1865 240.477 55.1703C241.699 55.1703 242.543 54.4598 242.543 52.8817V46.8204L245.874 46.817Z" fill="url(#paint10_linear_0_47)" fill-opacity="0.92"/>
<path d="M264.99 51.1049V57.9272H261.656V51.3934C261.656 50.2822 261.123 49.5716 260.057 49.5716C258.946 49.5716 258.323 50.3495 258.323 51.6605V57.9272H254.99V51.3934C254.99 50.2822 254.457 49.5716 253.389 49.5716C252.278 49.5716 251.656 50.3495 251.656 51.6605V57.9272H248.323V46.8149H251.656V47.8363C252.002 47.3832 252.456 47.0238 252.975 46.7911C253.496 46.5583 254.066 46.4596 254.634 46.504C255.204 46.476 255.772 46.5965 256.283 46.8534C256.793 47.1102 257.227 47.495 257.545 47.9699C257.914 47.473 258.403 47.0779 258.967 46.8215C259.53 46.5651 260.15 46.4559 260.767 46.504C263.319 46.5051 264.99 48.3268 264.99 51.1049Z" fill="url(#paint11_linear_0_47)" fill-opacity="0.92"/>
<path d="M267.81 46.7489C269.177 46.7489 270.284 45.6413 270.284 44.275C270.284 42.9087 269.177 41.8011 267.81 41.8011C266.444 41.8011 265.337 42.9087 265.337 44.275C265.337 45.6413 266.444 46.7489 267.81 46.7489Z" fill="url(#paint12_linear_0_47)" fill-opacity="0.92"/>
<g clip-path="url(#clip0_0_47)">
<path d="M370.906 36.3846C371.148 35.2349 372.294 34.3024 373.462 34.3024H379.808L374.53 59.2917H368.184C367.016 59.2917 366.265 58.3601 366.508 57.2095L370.906 36.3846ZM392.061 36.3846C392.304 35.2349 393.449 34.3024 394.616 34.3024H400.963L395.685 59.2917H389.339C388.17 59.2917 387.42 58.3601 387.663 57.2095L392.061 36.3846ZM434.371 36.3846C434.614 35.2349 435.758 34.3024 436.927 34.3024H443.273L437.995 59.2917H431.648C430.48 59.2917 429.73 58.3601 429.973 57.2095L434.371 36.3846ZM403.079 34.3024H409.425C410.593 34.3024 411.344 35.234 411.101 36.3846L406.703 57.2095C406.46 58.3601 405.315 59.2917 404.147 59.2917H397.801L403.079 34.3024ZM445.389 34.3024H451.735C452.904 34.3024 453.654 35.234 453.411 36.3846L449.012 57.2095C448.77 58.3601 447.626 59.2917 446.457 59.2917H440.11L445.389 34.3024ZM413.217 36.3846C413.459 35.2349 414.603 34.3024 415.771 34.3024H422.118L416.84 59.2917H410.493C409.325 59.2917 408.574 58.3601 408.818 57.2095L413.216 36.3846H413.217ZM424.233 34.3024H430.58C431.749 34.3024 432.499 35.234 432.256 36.3846L425.659 67.6224C425.415 68.7721 424.271 69.7047 423.102 69.7047H416.755L424.233 34.3024ZM378.405 50.9619H386.867L385.548 57.2095C385.305 58.3601 384.16 59.2917 382.992 59.2917H376.645L378.404 50.9629L378.405 50.9619ZM407.939 61.3749H416.4L414.641 69.7047H408.295C407.126 69.7047 406.376 68.773 406.619 67.6224L407.939 61.3749ZM430.908 63.3118L429.836 68.3855C429.79 68.6035 429.717 68.6631 429.495 68.6631H429.008C428.786 68.6631 428.738 68.6035 428.784 68.3855L429.856 63.3118C429.902 63.0947 429.975 63.0341 430.197 63.0341H430.684C430.906 63.0341 430.954 63.0947 430.908 63.3118ZM432.316 66.7346H432.216C432.11 66.7346 432.073 66.7644 432.052 66.8697L431.731 68.3855C431.684 68.6035 431.611 68.6631 431.39 68.6631H430.902C430.681 68.6631 430.633 68.6035 430.678 68.3855L431.75 63.3118C431.796 63.0947 431.871 63.0341 432.092 63.0341H433.098C434.257 63.0341 434.696 63.4468 434.481 64.4595L434.302 65.3083C434.088 66.3219 433.475 66.7346 432.316 66.7346ZM432.611 64.2201L432.331 65.5486C432.308 65.6539 432.332 65.6837 432.439 65.6837H432.599C432.972 65.6837 433.172 65.5337 433.253 65.1508L433.365 64.6179C433.446 64.2359 433.31 64.085 432.937 64.085H432.776C432.67 64.085 432.633 64.1148 432.611 64.2201ZM436.093 65.0381L436.885 65.9092C437.3 66.3591 437.358 66.6293 437.252 67.1324L437.224 67.2675C437.024 68.2131 436.547 68.7386 435.441 68.7386C434.336 68.7386 434.063 68.296 434.318 67.0868L434.35 66.9377C434.396 66.7197 434.47 66.6591 434.691 66.6591H435.209C435.431 66.6591 435.479 66.7197 435.432 66.9368L435.363 67.2675C435.299 67.5675 435.396 67.6877 435.663 67.6877C435.93 67.6877 436.075 67.5759 436.133 67.3057L436.163 67.1622C436.208 66.9517 436.183 66.8473 435.954 66.5995L435.209 65.7964C434.792 65.3539 434.738 65.0977 434.845 64.5946L434.879 64.4307C435.079 63.485 435.556 62.9587 436.661 62.9587C437.767 62.9587 438.04 63.4021 437.785 64.6105L437.753 64.7605C437.707 64.9785 437.633 65.0381 437.412 65.0381H436.893C436.672 65.0381 436.624 64.9785 436.67 64.7605L436.74 64.4307C436.803 64.1297 436.707 64.0105 436.44 64.0105C436.173 64.0105 436.027 64.1223 435.97 64.3925L435.943 64.5201C435.896 64.7381 435.921 64.8434 436.093 65.0381ZM440.557 63.3118C440.604 63.0947 440.677 63.0341 440.898 63.0341H441.386C441.607 63.0341 441.656 63.0947 441.609 63.3118L440.812 67.0877C440.556 68.296 440.097 68.7386 438.991 68.7386C437.886 68.7386 437.613 68.296 437.869 67.0868L438.666 63.3118C438.713 63.0947 438.786 63.0341 439.007 63.0341H439.495C439.716 63.0341 439.765 63.0947 439.719 63.3118L438.883 67.2675C438.82 67.5675 438.924 67.6877 439.214 67.6877C439.495 67.6877 439.658 67.5675 439.722 67.2675L440.557 63.3118ZM443.731 66.3666C443.733 66.4272 443.753 66.4411 443.791 66.4411C443.828 66.4411 443.855 66.4272 443.883 66.3666L445.201 63.2298C445.265 63.0714 445.341 63.0341 445.532 63.0341H446.272C446.493 63.0341 446.541 63.0947 446.496 63.3118L445.424 68.3855C445.378 68.6035 445.303 68.6631 445.082 68.6631H444.732C444.511 68.6631 444.462 68.6035 444.509 68.3855L445.023 65.9539C445.037 65.8868 445.025 65.871 444.979 65.871C444.948 65.871 444.914 65.8868 444.895 65.939L443.831 68.4162C443.755 68.596 443.657 68.6631 443.436 68.6631H443.229C443 68.6631 442.931 68.596 442.931 68.4162L442.905 65.938C442.9 65.8859 442.888 65.871 442.85 65.871C442.805 65.871 442.786 65.8868 442.772 65.9539L442.259 68.3855C442.212 68.6035 442.139 68.6631 441.918 68.6631H441.567C441.346 68.6631 441.297 68.6035 441.344 68.3855L442.415 63.3118C442.462 63.0947 442.535 63.0341 442.756 63.0341H443.39C443.656 63.0341 443.742 63.0947 443.74 63.3574L443.73 66.3666H443.731ZM459.626 34.3024C459.626 35.3318 458.797 36.1656 457.775 36.1656C457.531 36.1649 457.29 36.1161 457.065 36.0221C456.84 35.928 456.635 35.7906 456.463 35.6175C456.292 35.4445 456.155 35.2393 456.063 35.0136C455.97 34.788 455.923 34.5463 455.924 34.3024C455.924 33.2729 456.753 32.4391 457.775 32.4391C458.797 32.4391 459.626 33.2729 459.626 34.3024Z" fill="url(#paint13_linear_0_47)" fill-opacity="0.92"/>
</g>
<path d="M593.084 58.2929C600.566 58.2929 606.632 55.0602 606.632 51.0726C606.632 47.0849 600.566 43.8523 593.084 43.8523C585.602 43.8523 579.536 47.0849 579.536 51.0726C579.536 55.0602 585.602 58.2929 593.084 58.2929Z" stroke="white" stroke-width="0.796944" stroke-miterlimit="10"/>
<path d="M593.083 59.009C601.816 59.009 608.894 55.4553 608.894 51.0715C608.894 46.6876 601.816 43.1339 593.083 43.1339C584.351 43.1339 577.272 46.6876 577.272 51.0715C577.272 55.4553 584.351 59.009 593.083 59.009Z" stroke="white" stroke-width="0.796944" stroke-miterlimit="10"/>
<path d="M593.086 59.7429C603.068 59.7429 611.161 55.8608 611.161 51.0721C611.161 46.2833 603.068 42.4014 593.086 42.4014C583.103 42.4014 575.011 46.2833 575.011 51.0721C575.011 55.8608 583.103 59.7429 593.086 59.7429Z" stroke="white" stroke-width="0.796944" stroke-miterlimit="10"/>
<path d="M593.085 60.4611C604.317 60.4611 613.423 56.258 613.423 51.0731C613.423 45.8881 604.317 41.6851 593.085 41.6851C581.853 41.6851 572.747 45.8881 572.747 51.0731C572.747 56.258 581.853 60.4611 593.085 60.4611Z" stroke="white" stroke-width="0.796944" stroke-miterlimit="10"/>
<path d="M593.085 61.1928C605.559 61.1928 615.671 56.6614 615.671 51.0716C615.671 45.4819 605.559 40.9504 593.085 40.9504C580.612 40.9504 570.5 45.4819 570.5 51.0716C570.5 56.6614 580.612 61.1928 593.085 61.1928Z" stroke="white" stroke-width="0.796944" stroke-miterlimit="10"/>
<path d="M593.084 61.9101C606.808 61.9101 617.933 57.0577 617.933 51.0718C617.933 45.0858 606.808 40.2334 593.084 40.2334C579.361 40.2334 568.236 45.0858 568.236 51.0718C568.236 57.0577 579.361 61.9101 593.084 61.9101Z" stroke="white" stroke-width="0.796944" stroke-miterlimit="10"/>
<path d="M593.084 62.6449C608.058 62.6449 620.196 57.4641 620.196 51.0732C620.196 44.6824 608.058 39.5016 593.084 39.5016C578.111 39.5016 565.972 44.6824 565.972 51.0732C565.972 57.4641 578.111 62.6449 593.084 62.6449Z" stroke="white" stroke-width="0.796944" stroke-miterlimit="10"/>
<path d="M593.083 63.3602C609.307 63.3602 622.458 57.8584 622.458 51.0714C622.458 44.2844 609.307 38.7825 593.083 38.7825C576.859 38.7825 563.708 44.2844 563.708 51.0714C563.708 57.8584 576.859 63.3602 593.083 63.3602Z" stroke="white" stroke-width="0.796944" stroke-miterlimit="10"/>
<path d="M593.085 64.0776C610.559 64.0776 624.724 58.2545 624.724 51.0714C624.724 43.8883 610.559 38.0653 593.085 38.0653C575.611 38.0653 561.446 43.8883 561.446 51.0714C561.446 58.2545 575.611 64.0776 593.085 64.0776Z" stroke="white" stroke-width="0.796944" stroke-miterlimit="10"/>
<path d="M593.085 64.8108C611.808 64.8108 626.987 58.6595 626.987 51.0715C626.987 43.4834 611.808 37.3322 593.085 37.3322C574.361 37.3322 559.183 43.4834 559.183 51.0715C559.183 58.6595 574.361 64.8108 593.085 64.8108Z" stroke="white" stroke-width="0.796944" stroke-miterlimit="10"/>
<path d="M593.084 65.529C613.058 65.529 629.249 59.0567 629.249 51.0724C629.249 43.0883 613.058 36.6158 593.084 36.6158C573.111 36.6158 556.919 43.0883 556.919 51.0724C556.919 59.0567 573.111 65.529 593.084 65.529Z" stroke="white" stroke-width="0.796944" stroke-miterlimit="10"/>
<path d="M593.084 66.2615C614.299 66.2615 631.497 59.4607 631.497 51.0717C631.497 42.6826 614.299 35.882 593.084 35.882C571.87 35.882 554.672 42.6826 554.672 51.0717C554.672 59.4607 571.87 66.2615 593.084 66.2615Z" stroke="url(#paint14_linear_0_47)" stroke-opacity="0.92" stroke-width="0.796944" stroke-miterlimit="10"/>
<g clip-path="url(#clip1_0_47)">
<path d="M743.597 37.2568C740.792 37.2568 738.101 38.3713 736.117 40.355L729.643 46.8291C727.66 48.8128 726.545 51.5033 726.545 54.3087C726.545 60.1507 731.281 64.8865 737.123 64.8865C739.928 64.8865 742.619 63.7721 744.603 61.7883L749.081 57.3102C749.081 57.3101 749.081 57.3103 749.081 57.3102L762.129 44.2624C763.076 43.315 764.361 42.7828 765.701 42.7828C767.944 42.7828 769.846 44.2448 770.505 46.2679L774.623 42.15C772.744 39.2078 769.45 37.2568 765.701 37.2568C762.895 37.2568 760.205 38.3713 758.221 40.355L740.695 57.8809C739.748 58.8284 738.463 59.3606 737.123 59.3606C734.333 59.3606 732.071 57.0988 732.071 54.3087C732.071 52.9688 732.603 51.6839 733.551 50.7364L740.025 44.2624C740.972 43.315 742.257 42.7828 743.597 42.7828C745.84 42.7828 747.742 44.2448 748.401 46.268L752.519 42.1501C750.641 39.2079 747.347 37.2568 743.597 37.2568Z" fill="url(#paint15_linear_0_47)" fill-opacity="0.92"/>
<path d="M762.797 57.8809C761.85 58.8284 760.565 59.3606 759.225 59.3606C756.982 59.3606 755.08 57.899 754.421 55.8762L750.303 59.994C752.182 62.9358 755.475 64.8865 759.225 64.8865C762.03 64.8865 764.721 63.7721 766.704 61.7883L784.23 44.2624C785.178 43.315 786.463 42.7828 787.803 42.7828C790.593 42.7828 792.855 45.0446 792.855 47.8347C792.855 49.1745 792.322 50.4595 791.375 51.4069L784.901 57.8809C783.953 58.8284 782.668 59.3606 781.329 59.3606C779.086 59.3606 777.184 57.8987 776.524 55.8758L772.407 59.9936C774.285 62.9357 777.579 64.8865 781.329 64.8865C784.134 64.8865 786.825 63.7721 788.808 61.7883L795.282 55.3143C797.266 53.3306 798.38 50.6401 798.38 47.8347C798.38 41.9927 793.645 37.2568 787.803 37.2568C784.997 37.2568 782.307 38.3713 780.323 40.355L762.797 57.8809Z" fill="url(#paint16_linear_0_47)" fill-opacity="0.92"/>
</g>
<g clip-path="url(#clip2_0_47)">
<path d="M939.284 58.8393H950.398V55.4919H943.234V42.8832H939.284V58.8393Z" fill="url(#paint17_linear_0_47)" fill-opacity="0.92"/>
<path d="M956.982 56.6073C955.397 56.6073 954.571 55.2237 954.571 53.1483C954.571 51.0729 955.397 49.667 956.982 49.667C958.566 49.667 959.414 51.0729 959.414 53.1483C959.414 55.2237 958.566 56.6073 956.982 56.6073ZM957.004 59.196C960.686 59.196 963.096 56.585 963.096 53.1483C963.096 49.7116 960.686 47.1006 957.004 47.1006C953.344 47.1006 950.889 49.7116 950.889 53.1483C950.889 56.585 953.344 59.196 957.004 59.196Z" fill="url(#paint18_linear_0_47)" fill-opacity="0.92"/>
<path d="M969.471 62.7903C971.167 62.7903 972.662 62.4109 973.666 61.5182C974.581 60.6925 975.184 59.4428 975.184 57.7245V47.4143H971.702V48.6417H971.658C970.988 47.6821 969.962 47.0796 968.444 47.0796C965.61 47.0796 963.646 49.4451 963.646 52.7926C963.646 56.2962 966.034 58.2154 968.6 58.2154C969.984 58.2154 970.854 57.6575 971.524 56.8988H971.613V58.0369C971.613 59.4205 970.966 60.2239 969.426 60.2239C968.221 60.2239 967.618 59.7106 967.418 59.1081H963.892C964.249 61.4959 966.324 62.7903 969.471 62.7903ZM969.448 55.5152C968.087 55.5152 967.194 54.3993 967.194 52.681C967.194 50.9403 968.087 49.8245 969.448 49.8245C970.966 49.8245 971.769 51.1188 971.769 52.6587C971.769 54.2654 971.033 55.5152 969.448 55.5152Z" fill="url(#paint19_linear_0_47)" fill-opacity="0.92"/>
<path d="M982.34 56.6073C980.756 56.6073 979.93 55.2237 979.93 53.1483C979.93 51.0729 980.756 49.667 982.34 49.667C983.925 49.667 984.773 51.0729 984.773 53.1483C984.773 55.2237 983.925 56.6073 982.34 56.6073ZM982.363 59.196C986.045 59.196 988.455 56.585 988.455 53.1483C988.455 49.7116 986.045 47.1006 982.363 47.1006C978.703 47.1006 976.248 49.7116 976.248 53.1483C976.248 56.585 978.703 59.196 982.363 59.196Z" fill="url(#paint20_linear_0_47)" fill-opacity="0.92"/>
<path d="M989.518 58.8393H993.156V47.4134H989.518V58.8393ZM989.518 45.8289H993.156V42.8832H989.518V45.8289Z" fill="url(#paint21_linear_0_47)" fill-opacity="0.92"/>
<path d="M994.735 62.6117H998.373V57.6575H998.417C999.131 58.6171 1000.18 59.1973 1001.65 59.1973C1004.64 59.1973 1006.63 56.8318 1006.63 53.1273C1006.63 49.6906 1004.78 47.0796 1001.74 47.0796C1000.18 47.0796 999.064 47.7714 998.283 48.7979H998.216V47.4143H994.735V62.6117ZM1000.72 56.3855C999.154 56.3855 998.261 55.1135 998.261 53.2612C998.261 51.409 999.064 50.003 1000.65 50.003C1002.21 50.003 1002.95 51.2974 1002.95 53.2612C1002.95 55.2027 1002.1 56.3855 1000.72 56.3855Z" fill="url(#paint22_linear_0_47)" fill-opacity="0.92"/>
<path d="M1012.55 59.1973C1015.54 59.1973 1017.75 57.903 1017.75 55.4036C1017.75 52.4801 1015.39 51.9669 1013.38 51.6321C1011.93 51.3643 1010.63 51.2527 1010.63 50.4494C1010.63 49.7352 1011.32 49.4005 1012.22 49.4005C1013.22 49.4005 1013.91 49.7129 1014.05 50.7395H1017.39C1017.22 48.4855 1015.48 47.0796 1012.24 47.0796C1009.54 47.0796 1007.31 48.3293 1007.31 50.7395C1007.31 53.4174 1009.43 53.953 1011.41 54.2878C1012.93 54.5555 1014.31 54.6671 1014.31 55.6937C1014.31 56.4301 1013.62 56.8318 1012.53 56.8318C1011.32 56.8318 1010.57 56.2739 1010.43 55.1358H1007C1007.11 57.6575 1009.2 59.1973 1012.55 59.1973Z" fill="url(#paint23_linear_0_47)" fill-opacity="0.92"/>
<path d="M1022.69 59.1749C1024.28 59.1749 1025.28 58.55 1026.11 57.4342H1026.17V58.8401H1029.66V47.4142H1026.02V53.7966C1026.02 55.1579 1025.26 56.0952 1024.01 56.0952C1022.85 56.0952 1022.29 55.4034 1022.29 54.1537V47.4142H1018.68V54.9125C1018.68 57.4565 1020.06 59.1749 1022.69 59.1749Z" fill="url(#paint24_linear_0_47)" fill-opacity="0.92"/>
<path d="M1031.24 58.8403H1034.87V52.4355C1034.87 51.0742 1035.54 50.1146 1036.68 50.1146C1037.77 50.1146 1038.29 50.8287 1038.29 52.0561V58.8403H1041.92V52.4355C1041.92 51.0742 1042.57 50.1146 1043.73 50.1146C1044.83 50.1146 1045.34 50.8287 1045.34 52.0561V58.8403H1048.98V51.409C1048.98 48.8426 1047.68 47.0796 1045.09 47.0796C1043.62 47.0796 1042.39 47.7044 1041.5 49.0881H1041.46C1040.88 47.8607 1039.74 47.0796 1038.24 47.0796C1036.59 47.0796 1035.5 47.8607 1034.78 49.0434H1034.72V47.4143H1031.24V58.8403Z" fill="url(#paint25_linear_0_47)" fill-opacity="0.92"/>
<path fill-rule="evenodd" clip-rule="evenodd" d="M911.226 32.4395C921.698 32.4395 930.187 40.9285 930.187 51.4002C930.187 61.872 921.698 70.3611 911.226 70.3611C900.754 70.3611 892.265 61.872 892.265 51.4002C892.265 40.9285 900.754 32.4395 911.226 32.4395ZM929.459 51.4002C929.459 41.3304 921.296 33.1672 911.226 33.1672C910.414 33.1672 909.614 33.2203 908.83 33.3232C909.336 33.2789 909.849 33.2563 910.367 33.2563C919.99 33.2563 927.79 41.0567 927.79 50.6789C927.79 60.3011 919.99 68.1014 910.367 68.1014C901.258 68.1014 893.781 61.11 893.01 52.2001C893.429 61.8988 901.424 69.6333 911.226 69.6333C921.296 69.6333 929.459 61.4701 929.459 51.4002ZM927.062 50.6789C927.062 41.4586 919.588 33.984 910.367 33.984C909.619 33.984 908.881 34.0333 908.159 34.1288C908.604 34.0914 909.054 34.0723 909.509 34.0723C918.281 34.0723 925.393 41.184 925.393 49.9566C925.393 58.7293 918.281 65.841 909.509 65.841C901.214 65.841 894.404 59.483 893.687 51.3745C894.051 60.2722 901.38 67.3737 910.367 67.3737C919.588 67.3737 927.062 59.8992 927.062 50.6789ZM909.509 34.8C917.879 34.8 924.665 41.5859 924.665 49.9566C924.665 58.3274 917.879 65.1132 909.509 65.1132C901.332 65.1132 894.667 58.6381 894.363 50.5357C895.02 57.849 901.166 63.5804 908.65 63.5804C916.573 63.5804 922.995 57.1579 922.995 49.2352C922.995 41.3126 916.573 34.89 908.65 34.89C908.24 34.89 907.834 34.9072 907.433 34.9409C908.112 34.848 908.804 34.8 909.509 34.8ZM922.267 49.2352C922.267 41.7145 916.171 35.6178 908.65 35.6178C908.014 35.6178 907.389 35.6613 906.777 35.7455C907.111 35.7193 907.449 35.706 907.79 35.706C914.863 35.706 920.597 41.4399 920.597 48.513C920.597 55.5861 914.863 61.32 907.79 61.32C901.133 61.32 895.662 56.2403 895.042 49.7454C895.31 57.0298 901.3 62.8527 908.65 62.8527C916.171 62.8527 922.267 56.756 922.267 49.2352ZM907.79 36.4337C914.461 36.4337 919.869 41.8418 919.869 48.513C919.869 55.1842 914.461 60.5923 907.79 60.5923C901.25 60.5923 895.925 55.3952 895.717 48.9058C896.277 54.6059 901.084 59.0595 906.931 59.0595C913.155 59.0595 918.2 54.0143 918.2 47.7907C918.2 41.5672 913.155 36.522 906.931 36.522C906.646 36.522 906.363 36.5326 906.083 36.5534C906.641 36.4745 907.211 36.4337 907.79 36.4337ZM917.473 47.7907C917.473 41.969 912.753 37.2497 906.931 37.2497C906.4 37.2497 905.878 37.289 905.368 37.3649C905.601 37.3482 905.836 37.3397 906.073 37.3397C911.446 37.3397 915.803 41.6959 915.803 47.0693C915.803 52.4429 911.446 56.799 906.073 56.799C901.038 56.799 896.896 52.9741 896.394 48.0712C896.543 53.7632 901.204 58.3318 906.931 58.3318C912.753 58.3318 917.473 53.6124 917.473 47.7907ZM906.073 38.0675C911.044 38.0675 915.075 42.0977 915.075 47.0693C915.075 52.041 911.044 56.0713 906.073 56.0713C901.164 56.0713 897.174 52.143 897.073 47.2588C897.526 51.3537 900.998 54.5385 905.214 54.5385C909.738 54.5385 913.406 50.8711 913.406 46.3471C913.406 41.8232 909.738 38.1557 905.214 38.1557C905.041 38.1557 904.869 38.1611 904.699 38.1716C905.147 38.103 905.606 38.0675 906.073 38.0675ZM912.678 46.3471C912.678 42.225 909.336 38.8834 905.214 38.8834C904.8 38.8834 904.394 38.9171 903.998 38.9819C904.116 38.9757 904.235 38.9726 904.355 38.9726C908.029 38.9726 911.008 41.9513 911.008 45.6258C911.008 49.3002 908.029 52.279 904.355 52.279C900.957 52.279 898.154 49.7321 897.751 46.4435C897.803 50.5212 901.124 53.8108 905.214 53.8108C909.336 53.8108 912.678 50.4692 912.678 46.3471ZM904.355 39.7003C907.627 39.7003 910.28 42.3532 910.28 45.6258C910.28 48.8984 907.627 51.5512 904.355 51.5512C901.082 51.5512 898.429 48.8984 898.429 45.6258C898.429 45.6179 898.429 45.61 898.429 45.6022C898.77 48.0961 900.908 50.0176 903.496 50.0176C906.32 50.0176 908.61 47.728 908.61 44.9035C908.61 42.079 906.32 39.7895 903.496 39.7895C903.432 39.7895 903.368 39.7906 903.305 39.7929C903.646 39.7321 903.996 39.7003 904.355 39.7003ZM907.882 44.9035C907.882 42.481 905.918 40.5172 903.496 40.5172C901.073 40.5172 899.109 42.481 899.109 44.9035C899.109 47.326 901.073 49.2898 903.496 49.2898C905.918 49.2898 907.882 47.326 907.882 44.9035Z" fill="url(#paint26_linear_0_47)" fill-opacity="0.92"/>
</g>
<g clip-path="url(#clip3_0_47)">
<path fill-rule="evenodd" clip-rule="evenodd" d="M1152.6 56.3272C1151.73 56.3272 1150.9 55.9812 1150.28 55.3652C1149.66 54.7492 1149.32 53.9138 1149.32 53.0427V37.9342H1142.75V53.0427C1142.75 58.4844 1147.16 62.8961 1152.6 62.8961H1159.83V56.3272H1152.6ZM1172.31 44.5031C1171.53 44.5031 1170.77 44.656 1170.05 44.9532C1169.33 45.2503 1168.68 45.6857 1168.13 46.2347C1167.58 46.7837 1167.15 47.4354 1166.85 48.1527C1166.55 48.87 1166.4 49.6388 1166.4 50.4152C1166.4 51.1915 1166.55 51.9603 1166.85 52.6776C1167.15 53.3949 1167.58 54.0466 1168.13 54.5956C1168.68 55.1446 1169.33 55.5801 1170.05 55.8772C1170.77 56.1743 1171.53 56.3272 1172.31 56.3272C1173.88 56.3272 1175.38 55.7043 1176.49 54.5956C1177.6 53.4869 1178.22 51.9831 1178.22 50.4152C1178.22 48.8472 1177.6 47.3434 1176.49 46.2347C1175.38 45.126 1173.88 44.5031 1172.31 44.5031ZM1159.83 50.4152C1159.83 43.5224 1165.42 37.9342 1172.31 37.9342C1179.2 37.9342 1184.79 43.5224 1184.79 50.4152C1184.79 57.3079 1179.2 62.8961 1172.31 62.8961C1165.42 62.8961 1159.83 57.3079 1159.83 50.4152ZM1243.25 44.5031C1241.69 44.5031 1240.18 45.126 1239.07 46.2347C1237.97 47.3434 1237.34 48.8472 1237.34 50.4152C1237.34 51.9831 1237.97 53.4869 1239.07 54.5956C1240.18 55.7043 1241.69 56.3272 1243.25 56.3272C1244.82 56.3272 1246.33 55.7043 1247.43 54.5956C1248.54 53.4869 1249.17 51.9831 1249.17 50.4152C1249.17 48.8472 1248.54 47.3434 1247.43 46.2347C1246.33 45.126 1244.82 44.5031 1243.25 44.5031ZM1230.77 50.4152C1230.77 43.5224 1236.36 37.9342 1243.25 37.9342C1250.15 37.9342 1255.74 43.5224 1255.74 50.4152C1255.74 57.3079 1250.15 62.8961 1243.25 62.8961C1236.36 62.8961 1230.77 57.3079 1230.77 50.4152ZM1198.59 37.9342C1191.69 37.9342 1186.1 43.5224 1186.1 50.4152C1186.1 57.3079 1191.69 62.8961 1198.59 62.8961H1216.98C1218.27 62.8961 1219.52 62.699 1220.69 62.3338L1224.2 64.2099L1227.99 57.1128C1228.96 55.3062 1229.46 53.2906 1229.46 51.2435V50.4152C1229.46 43.5224 1223.87 37.9342 1216.98 37.9342H1198.59ZM1222.89 50.4152C1222.89 48.8472 1222.27 47.3434 1221.16 46.2347C1220.05 45.126 1218.55 44.5031 1216.98 44.5031H1198.59C1197.81 44.5031 1197.04 44.656 1196.32 44.9532C1195.61 45.2503 1194.95 45.6857 1194.41 46.2347C1193.86 46.7837 1193.42 47.4354 1193.12 48.1527C1192.83 48.87 1192.67 49.6388 1192.67 50.4152C1192.67 51.1915 1192.83 51.9603 1193.12 52.6776C1193.42 53.3949 1193.86 54.0466 1194.41 54.5956C1194.95 55.1446 1195.61 55.5801 1196.32 55.8772C1197.04 56.1743 1197.81 56.3272 1198.59 56.3272H1216.98C1218.54 56.3272 1220.04 55.7107 1221.14 54.6119C1222.25 53.5131 1222.88 52.0211 1222.89 50.4611V50.4152Z" fill="url(#paint27_linear_0_47)" fill-opacity="0.92"/>
<path d="M1258.37 39.5766C1258.37 40.0121 1258.19 40.4298 1257.88 40.7378C1257.58 41.0458 1257.16 41.2188 1256.72 41.2188C1256.29 41.2188 1255.87 41.0458 1255.56 40.7378C1255.25 40.4298 1255.08 40.0121 1255.08 39.5766C1255.08 39.141 1255.25 38.7233 1255.56 38.4153C1255.87 38.1073 1256.29 37.9343 1256.72 37.9343C1257.16 37.9343 1257.58 38.1073 1257.88 38.4153C1258.19 38.7233 1258.37 39.141 1258.37 39.5766Z" fill="white"/>
</g>
<defs>
<linearGradient id="paint0_linear_0_47" x1="129.915" y1="57.0342" x2="147.912" y2="57.0342" gradientUnits="userSpaceOnUse">
<stop stop-color="white"/>
<stop offset="1" stop-color="#999999"/>
</linearGradient>
<linearGradient id="paint1_linear_0_47" x1="119.06" y1="51.0412" x2="146.815" y2="51.0412" gradientUnits="userSpaceOnUse">
<stop stop-color="white"/>
<stop offset="1" stop-color="#999999"/>
</linearGradient>
<linearGradient id="paint2_linear_0_47" x1="118.027" y1="45.1096" x2="136.021" y2="45.1096" gradientUnits="userSpaceOnUse">
<stop stop-color="white"/>
<stop offset="1" stop-color="#999999"/>
</linearGradient>
<linearGradient id="paint3_linear_0_47" x1="159.835" y1="49.8164" x2="163.168" y2="49.8164" gradientUnits="userSpaceOnUse">
<stop stop-color="white"/>
<stop offset="1" stop-color="#999999"/>
</linearGradient>
<linearGradient id="paint4_linear_0_47" x1="165.054" y1="52.3496" x2="176.833" y2="52.3496" gradientUnits="userSpaceOnUse">
<stop stop-color="white"/>
<stop offset="1" stop-color="#999999"/>
</linearGradient>
<linearGradient id="paint5_linear_0_47" x1="178.164" y1="54.5979" x2="190.123" y2="54.5979" gradientUnits="userSpaceOnUse">
<stop stop-color="white"/>
<stop offset="1" stop-color="#999999"/>
</linearGradient>
<linearGradient id="paint6_linear_0_47" x1="192.011" y1="52.3496" x2="203.79" y2="52.3496" gradientUnits="userSpaceOnUse">
<stop stop-color="white"/>
<stop offset="1" stop-color="#999999"/>
</linearGradient>
<linearGradient id="paint7_linear_0_47" x1="205.344" y1="49.8835" x2="209.344" y2="49.8835" gradientUnits="userSpaceOnUse">
<stop stop-color="white"/>
<stop offset="1" stop-color="#999999"/>
</linearGradient>
<linearGradient id="paint8_linear_0_47" x1="211.455" y1="54.4365" x2="223.418" y2="54.4365" gradientUnits="userSpaceOnUse">
<stop stop-color="white"/>
<stop offset="1" stop-color="#999999"/>
</linearGradient>
<linearGradient id="paint9_linear_0_47" x1="224.3" y1="52.3803" x2="233.699" y2="52.3803" gradientUnits="userSpaceOnUse">
<stop stop-color="white"/>
<stop offset="1" stop-color="#999999"/>
</linearGradient>
<linearGradient id="paint10_linear_0_47" x1="235.21" y1="52.5331" x2="245.874" y2="52.5331" gradientUnits="userSpaceOnUse">
<stop stop-color="white"/>
<stop offset="1" stop-color="#999999"/>
</linearGradient>
<linearGradient id="paint11_linear_0_47" x1="248.323" y1="52.2101" x2="264.99" y2="52.2101" gradientUnits="userSpaceOnUse">
<stop stop-color="white"/>
<stop offset="1" stop-color="#999999"/>
</linearGradient>
<linearGradient id="paint12_linear_0_47" x1="265.337" y1="44.275" x2="270.284" y2="44.275" gradientUnits="userSpaceOnUse">
<stop stop-color="white"/>
<stop offset="1" stop-color="#999999"/>
</linearGradient>
<linearGradient id="paint13_linear_0_47" x1="366.462" y1="51.0719" x2="459.626" y2="51.0719" gradientUnits="userSpaceOnUse">
<stop stop-color="white"/>
<stop offset="1" stop-color="#999999"/>
</linearGradient>
<linearGradient id="paint14_linear_0_47" x1="554.672" y1="51.0717" x2="631.497" y2="51.0717" gradientUnits="userSpaceOnUse">
<stop stop-color="white"/>
<stop offset="1" stop-color="#999999"/>
</linearGradient>
<linearGradient id="paint15_linear_0_47" x1="726.545" y1="51.0717" x2="774.623" y2="51.0717" gradientUnits="userSpaceOnUse">
<stop stop-color="white"/>
<stop offset="1" stop-color="#999999"/>
</linearGradient>
<linearGradient id="paint16_linear_0_47" x1="750.303" y1="51.0717" x2="798.38" y2="51.0717" gradientUnits="userSpaceOnUse">
<stop stop-color="white"/>
<stop offset="1" stop-color="#999999"/>
</linearGradient>
<linearGradient id="paint17_linear_0_47" x1="939.284" y1="50.8613" x2="950.398" y2="50.8613" gradientUnits="userSpaceOnUse">
<stop stop-color="white"/>
<stop offset="1" stop-color="#999999"/>
</linearGradient>
<linearGradient id="paint18_linear_0_47" x1="950.889" y1="53.1483" x2="963.096" y2="53.1483" gradientUnits="userSpaceOnUse">
<stop stop-color="white"/>
<stop offset="1" stop-color="#999999"/>
</linearGradient>
<linearGradient id="paint19_linear_0_47" x1="963.646" y1="54.9349" x2="975.184" y2="54.9349" gradientUnits="userSpaceOnUse">
<stop stop-color="white"/>
<stop offset="1" stop-color="#999999"/>
</linearGradient>
<linearGradient id="paint20_linear_0_47" x1="976.248" y1="53.1483" x2="988.455" y2="53.1483" gradientUnits="userSpaceOnUse">
<stop stop-color="white"/>
<stop offset="1" stop-color="#999999"/>
</linearGradient>
<linearGradient id="paint21_linear_0_47" x1="989.518" y1="50.8613" x2="993.156" y2="50.8613" gradientUnits="userSpaceOnUse">
<stop stop-color="white"/>
<stop offset="1" stop-color="#999999"/>
</linearGradient>
<linearGradient id="paint22_linear_0_47" x1="994.735" y1="54.8457" x2="1006.63" y2="54.8457" gradientUnits="userSpaceOnUse">
<stop stop-color="white"/>
<stop offset="1" stop-color="#999999"/>
</linearGradient>
<linearGradient id="paint23_linear_0_47" x1="1007" y1="53.1385" x2="1017.75" y2="53.1385" gradientUnits="userSpaceOnUse">
<stop stop-color="white"/>
<stop offset="1" stop-color="#999999"/>
</linearGradient>
<linearGradient id="paint24_linear_0_47" x1="1018.68" y1="53.2945" x2="1029.66" y2="53.2945" gradientUnits="userSpaceOnUse">
<stop stop-color="white"/>
<stop offset="1" stop-color="#999999"/>
</linearGradient>
<linearGradient id="paint25_linear_0_47" x1="1031.24" y1="52.9599" x2="1048.98" y2="52.9599" gradientUnits="userSpaceOnUse">
<stop stop-color="white"/>
<stop offset="1" stop-color="#999999"/>
</linearGradient>
<linearGradient id="paint26_linear_0_47" x1="892.265" y1="51.4003" x2="930.187" y2="51.4003" gradientUnits="userSpaceOnUse">
<stop stop-color="white"/>
<stop offset="1" stop-color="#999999"/>
</linearGradient>
<linearGradient id="paint27_linear_0_47" x1="1142.75" y1="51.0721" x2="1255.74" y2="51.0721" gradientUnits="userSpaceOnUse">
<stop stop-color="white"/>
<stop offset="1" stop-color="#999999"/>
</linearGradient>
<clipPath id="clip0_0_47">
<rect width="93.1639" height="37.2656" fill="white" transform="translate(366.461 32.439)"/>
</clipPath>
<clipPath id="clip1_0_47">
<rect width="71.8372" height="27.6297" fill="white" transform="translate(726.544 37.2571)"/>
</clipPath>
<clipPath id="clip2_0_47">
<rect width="157.144" height="39.0535" fill="white" transform="translate(891.994 31.5452)"/>
</clipPath>
<clipPath id="clip3_0_47">
<rect width="115.613" height="26.2757" fill="white" transform="translate(1142.75 37.9342)"/>
</clipPath>
</defs>
</svg>
